<svg width="520" height="157" viewBox="0 0 520 157" fill="none" xmlns="http://www.w3.org/2000/svg">
<path d="M0 1.33701V70.543C0 71.468 0.514002 71.983 1.44 71.983H7.918C8.741 71.983 9.255 71.468 9.255 70.543V1.33701C9.255 0.515006 8.741 0 7.918 0H1.44C0.514002 0 0 0.515006 0 1.33701Z" fill="#E8E0CD"/>
<path d="M72.258 0H40.69C39.868 0 39.353 0.515006 39.353 1.33701V7.19901C39.353 8.12401 39.868 8.63901 40.69 8.63901H51.899V70.543C51.899 71.468 52.413 71.983 53.236 71.983H59.714C60.639 71.983 61.154 71.468 61.154 70.543V8.638H72.259C73.185 8.638 73.699 8.124 73.699 7.198V1.33798C73.699 0.514982 73.185 0 72.259 0H72.258ZM75.218 71.982H81.182C82.108 71.982 82.622 71.468 82.622 70.542V37.637C82.622 32.084 86.118 28.69 91.465 28.69H95.167C95.99 28.69 96.504 28.176 96.504 27.354V21.801C96.504 20.875 95.99 20.361 95.167 20.361H91.363C80.977 20.361 73.778 27.251 73.778 38.357V70.543C73.778 71.468 74.293 71.983 75.218 71.983V71.982ZM117.013 73.011C126.885 73.011 133.054 66.224 133.054 56.763V36.095C133.054 26.429 126.782 19.437 117.013 19.437C107.861 19.437 101.793 25.812 101.177 34.758C101.177 35.581 101.691 36.198 102.513 36.198H108.478C109.403 36.198 109.814 35.89 109.918 34.964C110.226 30.748 112.591 27.869 116.91 27.869C121.537 27.869 124.314 31.057 124.314 35.684V41.34H116.6C106.934 41.34 100.353 47.92 100.353 56.456C100.353 66.122 107.037 73.012 117.012 73.012L117.013 73.011ZM116.91 64.579C112.077 64.579 109.197 61.391 109.197 56.455C109.197 52.445 112.077 49.257 116.91 49.257H124.314V56.763C124.314 61.493 121.64 64.579 116.91 64.579V64.579ZM147.109 14.088C150.091 14.088 152.456 11.62 152.456 8.84399C152.456 5.75899 150.091 3.49698 147.109 3.49698C144.024 3.49698 141.864 5.75899 141.864 8.84399C141.864 11.826 144.024 14.088 147.109 14.088ZM144.126 71.982H150.091C151.016 71.982 151.531 71.468 151.531 70.542V21.905C151.531 21.082 151.016 20.568 150.091 20.568H144.126C143.201 20.568 142.686 21.082 142.686 21.905V70.544C142.686 71.469 143.201 71.984 144.126 71.984V71.982ZM162.986 71.982H168.951C169.876 71.982 170.391 71.468 170.391 70.542V35.889C170.391 31.056 173.064 27.765 177.589 27.765C182.113 27.765 184.787 31.055 184.787 35.889V70.543C184.787 71.468 185.301 71.983 186.227 71.983H192.191C193.116 71.983 193.631 71.468 193.631 70.543V36.197C193.631 26.428 187.151 19.436 177.589 19.436C168.025 19.436 161.547 26.428 161.547 36.197V70.543C161.547 71.468 162.061 71.983 162.987 71.983L162.986 71.982ZM204.179 73.011C207.469 73.011 210.039 70.543 210.039 67.252C210.039 63.859 207.469 61.494 204.179 61.494C200.888 61.494 198.42 63.859 198.42 67.252C198.42 70.542 200.888 73.011 204.179 73.011Z" fill="#2E2D29"/>
<path d="M295.742 0H289.264C288.441 0 287.927 0.515006 287.927 1.33701V54.398C287.927 60.774 285.356 64.373 280.42 64.373C275.998 64.373 272.81 60.773 272.81 54.398V1.33798C272.81 0.514982 272.296 0 271.474 0H264.995C264.173 0 263.659 0.515006 263.659 1.33701V54.398C263.659 60.774 260.676 64.373 256.152 64.373C251.216 64.373 248.542 60.773 248.542 54.398V1.33798C248.542 0.514982 248.028 0 247.206 0H240.727C239.904 0 239.39 0.515006 239.39 1.33701V53.987C239.39 65.607 245.766 73.114 256.152 73.114C261.808 73.114 265.407 70.44 268.183 66.635C271.063 70.44 274.559 73.114 280.42 73.114C290.806 73.114 297.182 65.607 297.182 53.987V1.33701C297.182 0.515006 296.667 0 295.742 0V0ZM321.98 73.011C331.235 73.011 337.713 66.635 338.228 57.071C338.228 56.249 337.713 55.735 336.891 55.735H330.824C330.001 55.735 329.487 56.146 329.384 57.072C329.076 61.596 326.299 64.682 322.083 64.682C317.353 64.682 314.576 61.391 314.576 56.661V51.313H322.186C331.955 51.313 338.536 44.835 338.536 35.786C338.536 26.326 331.749 19.436 322.083 19.538C312.211 19.538 305.836 26.325 305.733 36.094V56.249C305.733 66.327 312.314 73.011 321.98 73.011V73.011ZM314.576 43.292V35.992C314.576 31.056 317.25 27.868 322.083 27.868C326.813 27.868 329.693 31.056 329.693 35.991C329.693 40.311 326.916 43.292 322.186 43.292H314.576Z" fill="#FFC114"/>
<path d="M398.628 0H367.058C366.236 0 365.722 0.515006 365.722 1.33701V7.19901C365.722 8.12401 366.236 8.63901 367.059 8.63901H378.268V70.543C378.268 71.468 378.782 71.983 379.604 71.983H386.083C387.008 71.983 387.523 71.468 387.523 70.543V8.638H398.628C399.554 8.638 400.068 8.124 400.068 7.198V1.33798C400.068 0.514982 399.554 0 398.628 0ZM401.588 71.982H407.552C408.478 71.982 408.992 71.468 408.992 70.542V37.637C408.992 32.084 412.488 28.69 417.835 28.69H421.537C422.36 28.69 422.874 28.176 422.874 27.354V21.801C422.874 20.875 422.36 20.361 421.537 20.361H417.732C407.346 20.361 400.148 27.251 400.148 38.357V70.543C400.148 71.468 400.662 71.983 401.588 71.983V71.982ZM443.382 73.011C453.254 73.011 459.424 66.224 459.424 56.763V36.095C459.424 26.429 453.151 19.437 443.382 19.437C434.23 19.437 428.163 25.812 427.546 34.758C427.546 35.581 428.061 36.198 428.883 36.198H434.847C435.773 36.198 436.184 35.89 436.287 34.964C436.596 30.748 438.961 27.869 443.28 27.869C447.907 27.869 450.683 31.057 450.683 35.684V41.34H442.971C433.305 41.34 426.724 47.92 426.724 56.456C426.724 66.122 433.408 73.012 443.382 73.012V73.011ZM443.28 64.579C438.447 64.579 435.567 61.391 435.567 56.455C435.567 52.445 438.447 49.257 443.28 49.257H450.683V56.763C450.683 61.493 448.01 64.579 443.28 64.579V64.579ZM473.478 14.088C476.46 14.088 478.826 11.62 478.826 8.84399C478.826 5.75899 476.46 3.49698 473.478 3.49698C470.393 3.49698 468.234 5.75899 468.234 8.84399C468.234 11.826 470.394 14.088 473.478 14.088ZM470.496 71.982H476.46C477.386 71.982 477.9 71.468 477.9 70.542V21.905C477.9 21.082 477.386 20.568 476.46 20.568H470.496C469.571 20.568 469.056 21.082 469.056 21.905V70.544C469.056 71.469 469.571 71.984 470.496 71.984V71.982ZM489.356 71.982H495.32C496.246 71.982 496.76 71.468 496.76 70.542V35.889C496.76 31.056 499.434 27.765 503.958 27.765C508.483 27.765 511.156 31.055 511.156 35.889V70.543C511.156 71.468 511.671 71.983 512.596 71.983H518.56C519.486 71.983 520 71.468 520 70.543V36.197C520 26.428 513.522 19.436 503.958 19.436C494.395 19.436 487.917 26.428 487.917 36.197V70.543C487.917 71.468 488.431 71.983 489.357 71.983L489.356 71.982Z" fill="#4C4944"/>
<path d="M198.024 134.554L192.744 151.09H189.96L189.289 137.098L184.681 151.09H181.945L181.321 134.554H183.384L183.648 149.146L188.448 134.554H190.801L191.569 149.146L196.009 134.554H198.024ZM203.759 151.378C202.383 151.378 201.319 150.938 200.567 150.058C199.831 149.178 199.463 147.97 199.463 146.434C199.463 145.186 199.671 143.93 200.087 142.666C200.503 141.402 201.167 140.338 202.079 139.474C203.007 138.61 204.183 138.178 205.607 138.178C206.967 138.178 208.015 138.618 208.751 139.498C209.503 140.362 209.879 141.562 209.879 143.098C209.879 144.33 209.671 145.586 209.255 146.866C208.855 148.13 208.191 149.202 207.263 150.082C206.351 150.946 205.183 151.378 203.759 151.378ZM203.831 149.674C204.775 149.674 205.535 149.306 206.111 148.57C206.687 147.834 207.095 146.946 207.335 145.906C207.591 144.866 207.719 143.858 207.719 142.882C207.719 140.882 206.983 139.882 205.511 139.882C204.567 139.882 203.807 140.25 203.231 140.986C202.655 141.706 202.239 142.586 201.983 143.626C201.743 144.65 201.623 145.658 201.623 146.65C201.623 148.666 202.359 149.674 203.831 149.674ZM220.317 138.178C220.669 138.178 221.045 138.234 221.445 138.346L220.797 140.362C220.445 140.282 220.133 140.242 219.861 140.242C219.157 140.242 218.533 140.594 217.989 141.298C217.461 141.986 216.981 142.994 216.549 144.322L215.613 151.09H213.525L215.301 138.442H217.101L216.933 140.89C217.365 139.994 217.861 139.322 218.421 138.874C218.981 138.41 219.613 138.178 220.317 138.178V138.178ZM226.874 140.674C227.946 139.01 229.242 138.178 230.762 138.178C231.61 138.178 232.298 138.434 232.826 138.946C233.354 139.458 233.618 140.13 233.618 140.962C233.618 141.954 233.306 142.826 232.682 143.578C232.074 144.33 231.162 144.954 229.946 145.45L232.442 151.09H230.162L227.57 144.922C228.946 144.522 229.93 144.026 230.522 143.434C231.13 142.842 231.434 142.09 231.434 141.178C231.434 140.746 231.322 140.418 231.098 140.194C230.89 139.954 230.586 139.834 230.186 139.834C229.562 139.834 228.914 140.154 228.242 140.794C227.586 141.418 226.994 142.33 226.466 143.53L225.41 151.09H223.322L225.818 133.354L227.93 133.114L226.874 140.674ZM253.493 134.554L252.989 136.426H248.933L246.869 151.09H244.709L246.773 136.426H242.597L242.861 134.554H253.493ZM257.805 151.378C256.429 151.378 255.365 150.938 254.613 150.058C253.877 149.178 253.509 147.97 253.509 146.434C253.509 145.186 253.717 143.93 254.133 142.666C254.55 141.402 255.214 140.338 256.126 139.474C257.054 138.61 258.23 138.178 259.654 138.178C261.014 138.178 262.062 138.618 262.798 139.498C263.55 140.362 263.926 141.562 263.926 143.098C263.926 144.33 263.718 145.586 263.302 146.866C262.902 148.13 262.238 149.202 261.31 150.082C260.398 150.946 259.23 151.378 257.806 151.378H257.805ZM257.877 149.674C258.821 149.674 259.581 149.306 260.157 148.57C260.733 147.834 261.141 146.946 261.381 145.906C261.638 144.866 261.766 143.858 261.766 142.882C261.766 140.882 261.03 139.882 259.558 139.882C258.614 139.882 257.854 140.25 257.278 140.986C256.702 141.706 256.286 142.586 256.03 143.626C255.79 144.65 255.67 145.658 255.67 146.65C255.67 148.666 256.406 149.674 257.878 149.674H257.877ZM274.052 138.178C274.74 138.178 275.396 138.266 276.02 138.442C276.644 138.602 277.284 138.842 277.94 139.162L276.236 150.97C275.964 152.826 275.372 154.17 274.46 155.002C273.548 155.834 272.356 156.25 270.884 156.25C270.212 156.25 269.524 156.138 268.82 155.914C268.132 155.706 267.508 155.418 266.948 155.05L267.788 153.49C268.22 153.746 268.7 153.962 269.228 154.138C269.772 154.33 270.308 154.426 270.836 154.426C271.716 154.426 272.444 154.178 273.02 153.682C273.612 153.202 274.004 152.29 274.196 150.946L274.412 149.266C273.948 149.842 273.452 150.29 272.924 150.61C272.412 150.93 271.828 151.09 271.172 151.09C270.052 151.09 269.164 150.69 268.508 149.89C267.868 149.074 267.548 147.986 267.548 146.626C267.548 145.282 267.772 143.97 268.22 142.69C268.684 141.394 269.404 140.322 270.38 139.474C271.356 138.61 272.58 138.178 274.052 138.178V138.178ZM274.028 139.858C273.068 139.858 272.26 140.194 271.604 140.866C270.964 141.538 270.492 142.394 270.188 143.434C269.884 144.474 269.732 145.538 269.732 146.626C269.732 148.482 270.364 149.41 271.628 149.41C272.188 149.41 272.708 149.21 273.188 148.81C273.684 148.41 274.188 147.842 274.7 147.106L275.708 140.17C275.196 139.962 274.636 139.858 274.028 139.858V139.858ZM291.403 141.322C291.403 142.954 290.731 144.13 289.387 144.85C288.059 145.57 286.195 146.074 283.795 146.362V146.506C283.795 148.57 284.571 149.602 286.123 149.602C286.651 149.602 287.155 149.514 287.635 149.338C288.115 149.146 288.627 148.858 289.171 148.474L290.059 149.866C288.731 150.874 287.347 151.378 285.907 151.378C284.547 151.378 283.491 150.954 282.739 150.106C282.003 149.242 281.635 148.05 281.635 146.53C281.635 145.202 281.843 143.898 282.259 142.618C282.691 141.338 283.371 140.282 284.299 139.45C285.227 138.602 286.387 138.178 287.779 138.178C288.931 138.178 289.819 138.482 290.443 139.09C291.083 139.682 291.403 140.426 291.403 141.322V141.322ZM287.683 139.858C286.595 139.858 285.739 140.33 285.115 141.274C284.507 142.218 284.107 143.378 283.915 144.754C285.755 144.53 287.107 144.178 287.971 143.698C288.835 143.202 289.267 142.434 289.267 141.394C289.267 140.946 289.139 140.578 288.883 140.29C288.627 140.002 288.227 139.858 287.683 139.858V139.858ZM297.213 148.065C297.197 148.178 297.189 148.33 297.189 148.522C297.189 148.89 297.269 149.17 297.429 149.362C297.605 149.538 297.869 149.626 298.221 149.626C298.477 149.626 298.725 149.586 298.965 149.506C299.221 149.426 299.517 149.298 299.853 149.122L300.501 150.538C299.685 151.098 298.813 151.378 297.885 151.378C297.021 151.378 296.341 151.138 295.845 150.658C295.349 150.162 295.101 149.49 295.101 148.642C295.101 148.514 295.117 148.29 295.149 147.97L296.253 140.098H294.333L294.573 138.442H296.565L297.309 135.514L299.013 135.322L298.581 138.442H301.245L300.765 140.098H298.341L297.213 148.065ZM311.101 138.154C311.949 138.154 312.621 138.434 313.117 138.994C313.613 139.538 313.861 140.282 313.861 141.226C313.861 141.578 313.845 141.85 313.813 142.042L312.541 151.09H310.453L311.701 142.09C311.733 141.738 311.749 141.506 311.749 141.394C311.749 140.418 311.357 139.93 310.573 139.93C309.437 139.93 308.245 141.082 306.997 143.386L305.941 151.09H303.853L306.349 133.378L308.461 133.162L307.381 140.722C308.453 139.01 309.693 138.154 311.101 138.154V138.154ZM327.637 141.322C327.637 142.954 326.965 144.13 325.621 144.85C324.293 145.57 322.429 146.074 320.029 146.362V146.506C320.029 148.57 320.805 149.602 322.357 149.602C322.885 149.602 323.389 149.514 323.869 149.338C324.349 149.146 324.861 148.858 325.405 148.474L326.293 149.866C324.965 150.874 323.581 151.378 322.141 151.378C320.781 151.378 319.725 150.954 318.973 150.106C318.237 149.242 317.869 148.05 317.869 146.53C317.869 145.202 318.077 143.898 318.493 142.618C318.925 141.338 319.605 140.282 320.533 139.45C321.461 138.602 322.621 138.178 324.013 138.178C325.165 138.178 326.053 138.482 326.677 139.09C327.317 139.682 327.637 140.426 327.637 141.322V141.322ZM323.917 139.858C322.829 139.858 321.973 140.33 321.349 141.274C320.741 142.218 320.341 143.378 320.149 144.754C321.989 144.53 323.341 144.178 324.205 143.698C325.069 143.202 325.501 142.434 325.501 141.394C325.501 140.946 325.373 140.578 325.117 140.29C324.861 140.002 324.461 139.858 323.917 139.858V139.858ZM337.552 138.178C337.904 138.178 338.28 138.234 338.68 138.346L338.032 140.362C337.68 140.282 337.368 140.242 337.096 140.242C336.392 140.242 335.768 140.594 335.224 141.298C334.696 141.986 334.216 142.994 333.784 144.322L332.848 151.09H330.76L332.536 138.442H334.336L334.168 140.89C334.6 139.994 335.096 139.322 335.656 138.874C336.216 138.41 336.848 138.178 337.552 138.178V138.178Z" fill="#E8E0CD"/>
</svg>
